<?xml version="1.0" encoding="UTF-8" standalone="no"?>
<svg
   viewBox="0 0 25.729492 30"
   version="1.1"
   id="svg1314"
   sodipodi:docname="html5-brands-30px.svg"
   inkscape:version="1.1.1 (3bf5ae0d25, 2021-09-20)"
   width="25.729492"
   height="30"
   xmlns:inkscape="http://www.inkscape.org/namespaces/inkscape"
   xmlns:sodipodi="http://sodipodi.sourceforge.net/DTD/sodipodi-0.dtd"
   xmlns="http://www.w3.org/2000/svg"
   xmlns:svg="http://www.w3.org/2000/svg">
  <defs
     id="defs1318" />
  <sodipodi:namedview
     id="namedview1316"
     pagecolor="#ffffff"
     bordercolor="#666666"
     borderopacity="1.0"
     inkscape:pageshadow="2"
     inkscape:pageopacity="0.0"
     inkscape:pagecheckerboard="0"
     showgrid="false"
     inkscape:zoom="0.81347655"
     inkscape:cx="-25.200481"
     inkscape:cy="333.13806"
     inkscape:window-width="1920"
     inkscape:window-height="1011"
     inkscape:window-x="0"
     inkscape:window-y="32"
     inkscape:window-maximized="1"
     inkscape:current-layer="svg1314" />
  <!--! Font Awesome Pro 6.1.1 by @fontawesome - https://fontawesome.com License - https://fontawesome.com/license (Commercial License) Copyright 2022 Fonticons, Inc. -->
  <path
     style="fill:#076acd;stroke-width:0.0412334"
     d="M 7.5946723,28.26936 2.3786557,26.527386 2.3473533,26.386201 C 2.3301367,26.30855 1.8059925,20.428024 1.1825885,13.318367 0.55918431,6.2087091 0.0380731,0.30358047 0.02456354,0.19585805 L 0,0 h 12.864747 12.864745 l -0.01826,0.15462508 c -0.01005,0.0850456 -0.536546,6.04435852 -1.170002,13.24292192 -0.633457,7.198563 -1.166207,13.100907 -1.183888,13.116317 -0.0239,0.02083 -10.275452,3.422688 -10.505418,3.486099 -0.02268,0.0062 -2.388442,-0.772518 -5.2572506,-1.730603 z m 8.6006447,-5.509524 c 1.809626,-0.499453 3.293165,-0.912303 3.296755,-0.917442 0.0036,-0.0052 0.204484,-2.189557 0.446437,-4.85426 0.241952,-2.664705 0.449714,-4.905221 0.461691,-4.978925 L 20.42198,11.8752 h -5.898236 c -5.589084,0 -5.8983446,-0.0038 -5.9003189,-0.07216 -0.00115,-0.03969 -0.06214,-0.781828 -0.1355432,-1.6492 L 8.3544209,8.5768019 14.519687,8.5663593 20.684953,8.5559166 20.831722,6.958125 20.97849,5.3603334 H 12.867954 4.7574194 l 0.01841,0.1546251 C 4.7960323,5.684642 5.6154726,15.034181 5.6154726,15.095 c 0,0.02251 2.2533227,0.03763 5.6051404,0.03763 h 5.605142 l -0.01936,0.134009 c -0.01064,0.07369 -0.102488,1.004784 -0.2041,2.069064 -0.10161,1.064281 -0.189148,1.939352 -0.194529,1.944603 -0.0054,0.0053 -0.811568,0.225703 -1.791525,0.489893 L 12.834506,20.250549 11.047235,19.76666 9.2599656,19.282772 9.165531,18.207612 C 9.1135921,17.616272 9.0610291,17.044314 9.0487244,16.936592 L 9.0263523,16.740734 H 7.4019587 5.7775651 l 0.023294,0.195858 c 0.012811,0.107722 0.1061575,1.251879 0.2074353,2.54257 0.1012779,1.290692 0.1916041,2.354175 0.2007242,2.363295 0.03051,0.03051 6.5179494,1.820215 6.6076374,1.822865 0.04863,0.0015 1.569034,-0.406033 3.378661,-0.905486 z"
     id="path1357" />
</svg>
