<?xml version="1.0" encoding="UTF-8" standalone="no"?>
<svg
   viewBox="0 0 39.99675 30.000002"
   version="1.1"
   id="svg3171"
   sodipodi:docname="sass-brands-30px.svg"
   inkscape:version="1.1.1 (3bf5ae0d25, 2021-09-20)"
   width="39.99675"
   height="30.000002"
   xmlns:inkscape="http://www.inkscape.org/namespaces/inkscape"
   xmlns:sodipodi="http://sodipodi.sourceforge.net/DTD/sodipodi-0.dtd"
   xmlns="http://www.w3.org/2000/svg"
   xmlns:svg="http://www.w3.org/2000/svg">
  <defs
     id="defs3175" />
  <sodipodi:namedview
     id="namedview3173"
     pagecolor="#ffffff"
     bordercolor="#666666"
     borderopacity="1.0"
     inkscape:pageshadow="2"
     inkscape:pageopacity="0.0"
     inkscape:pagecheckerboard="0"
     showgrid="false"
     inkscape:zoom="0.1438037"
     inkscape:cx="358.12709"
     inkscape:cy="410.28153"
     inkscape:window-width="1920"
     inkscape:window-height="1011"
     inkscape:window-x="0"
     inkscape:window-y="32"
     inkscape:window-maximized="1"
     inkscape:current-layer="svg3171" />
  <!--! Font Awesome Pro 6.1.1 by @fontawesome - https://fontawesome.com License - https://fontawesome.com/license (Commercial License) Copyright 2022 Fonticons, Inc. -->
  <path
     style="fill:#076acd;stroke-width:0.0384807"
     d="m 3.5993295,29.98593 c -0.84408,-0.128412 -1.10101,-0.220716 -1.40959,-0.506413 -0.88592,-0.8202 -1.13759,-2.173728 -0.6656,-3.579746 0.12977,-0.38658 0.39278,-0.888213 0.63273,-1.206762 0.88262,-1.171774 2.66828,-2.498685 5.02117,-3.731213 0.75626,-0.396153 0.71353,-0.363307 0.59645,-0.458528 -0.33967,-0.276259 -1.22592,-0.92303 -2.001,-1.460292 -2.09591,-1.452833 -2.90052,-2.090877 -3.79229,-3.007209 -0.82995,-0.852802 -1.30315996,-1.523184 -1.65286996,-2.341543 -0.32987,-0.771928 -0.40709,-1.46114 -0.25006,-2.231723 0.42377,-2.0794717 2.20734996,-4.4355667 4.86156996,-6.4221137 2.2179,-1.659979 5.1860305,-3.191488 8.0680305,-4.16297495 3.53725,-1.192361 7.1857,-1.168019 9.63342,0.06427 1.11266,0.56016095 1.89222,1.35254295 2.25839,2.29555095 0.30291,0.780112 0.37197,1.865382 0.17826,2.801367 -0.32112,1.55156 -1.18721,3.074849 -2.48761,4.3752507 -1.43811,1.438115 -3.14269,2.361354 -5.4073,2.928718 -1.78828,0.448028 -3.69287,0.552006 -5.04097,0.275205 -1.34291,-0.275736 -2.5891305,-1.17645 -2.8676305,-2.0726 -0.0874,-0.281152 -0.0709,-0.40189 0.0633,-0.46303 0.0882,-0.04019 0.11513,-0.02335 0.37222,0.232721 1.1983305,1.193581 3.2186005,1.460894 5.9145705,0.782588 2.66617,-0.670809 5.00006,-2.1663197 6.36918,-4.0812527 0.45342,-0.634177 0.72895,-1.183594 0.92536,-1.845163 0.0817,-0.275066 0.10665,-0.45322 0.1214,-0.865817 0.0292,-0.817276 -0.10907,-1.258552 -0.53823,-1.717329 -0.52569,-0.561964 -1.4091,-0.936681 -2.63325,-1.116949 -0.62876,-0.09259 -2.02463,-0.09251 -2.76295,1.56e-4 -2.25586,0.283149 -4.39724,1.002324 -6.91704,2.323063 -3.4739605,1.820864 -5.7287405,3.72163 -6.6921605,5.6414637 -0.38413,0.765466 -0.51469,1.323944 -0.50988,2.180932 0.003,0.531767 0.0146,0.63401 0.10755,0.942778 0.23877,0.793567 0.63356,1.397803 1.44741,2.215312 0.5939,0.596569 0.89319,0.850509 2.17432,1.844878 1.20433,0.93475 1.56831,1.239097 2.08556,1.743841 l 0.46936,0.458018 1.0891105,-0.597499 c 0.599,-0.328625 1.50448,-0.824998 2.01217,-1.103051 0.50768,-0.278054 0.93785,-0.531991 0.95594,-0.564305 0.0181,-0.03231 0.1637,-0.214673 0.32359,-0.405241 0.7184,-0.856246 1.85465,-1.652093 2.65153,-1.857189 0.26907,-0.06925 0.6964,-0.07922 0.90557,-0.02112 0.23849,0.06624 0.50212,0.270507 0.63374,0.491042 0.20254,0.339342 0.25841,0.655267 0.23181,1.310591 -0.0126,0.310024 -0.0344,0.61563 -0.0484,0.679123 l -0.0255,0.115443 0.0833,-0.08655 c 0.15614,-0.162259 0.38472,-0.251669 0.58329,-0.228152 0.41832,0.04954 0.70351,0.285092 0.70196,0.579772 -6.3e-4,0.08702 -0.13308,0.651732 -0.29472,1.254918 -0.35411,1.321442 -0.61312,2.402552 -0.69981,2.920996 -0.0653,0.390321 -0.068,1.082943 -0.005,1.145202 0.13838,0.135783 1.01373,-1.678343 3.10392,-6.432763 0.66298,-1.508042 0.77375,-1.792086 0.9211,-2.36188 0.16798,-0.649568 0.16916,-0.651986 0.36083,-0.736768 0.46994,-0.207877 1.64857,-0.257071 1.98049,-0.08266 0.27455,0.144262 0.2787,0.193088 0.0718,0.844265 -0.22403,0.704928 -0.28918,1.005928 -0.31848,1.471227 -0.0249,0.395247 0.0559,1.161706 0.16227,1.539229 0.0755,0.268001 0.47869,1.119653 0.51844,1.095084 0.0365,-0.02255 0.76665,-1.269486 1.15949,-1.98014 0.84189,-1.52297 1.17394,-2.248243 1.34013,-2.92714 0.13427,-0.548506 0.26047,-0.955782 0.31902,-1.029569 0.15354,-0.193471 0.80541,-0.327004 1.50383,-0.308052 0.51181,0.01389 0.70105,0.07398 0.84229,0.267443 l 0.0736,0.100882 -0.19347,0.591772 c -0.24192,0.739955 -0.31443,1.121487 -0.31443,1.654496 0,0.455213 0.0812,1.094122 0.17792,1.400043 0.0974,0.307976 0.71751,1.56297 0.76245,1.542997 1.21487,-0.539961 2.19015,-0.778527 3.35207,-0.819957 2.86167,-0.102038 5.12789,1.278373 5.71943,3.483849 0.10527,0.392505 0.11334,1.109965 0.0165,1.465688 -0.0899,0.330205 -0.28435,0.703916 -0.51084,0.981874 -0.34352,0.421559 -1.00846,0.855758 -1.37357,0.896911 -0.14696,0.01656 -0.1771,0.0075 -0.21577,-0.06474 -0.0585,-0.109274 -0.0226,-0.151706 0.32833,-0.38853 0.5209,-0.351498 0.91384,-0.884244 1.02111,-1.384399 0.0644,-0.300185 0.023,-0.809382 -0.0931,-1.146306 -0.26754,-0.776291 -0.95565,-1.511999 -1.81748,-1.943215 -1.19944,-0.600133 -3.2487,-0.807008 -4.82917,-0.487509 -0.32645,0.06599 -1.13127,0.311231 -1.17942,0.359383 -0.0101,0.0101 0.0263,0.147732 0.0809,0.305852 0.12347,0.357737 0.203,0.730458 0.23567,1.104538 0.0824,0.943007 -0.5406,1.927514 -1.69281,2.675247 -0.37787,0.245218 -0.58617,0.349367 -1.05964,0.529812 -0.68414,0.260737 -0.97032,0.30553 -1.272,0.199093 -0.25443,-0.08977 -0.42014,-0.237861 -0.52677,-0.470771 -0.0888,-0.194057 -0.0948,-0.24218 -0.077,-0.619808 0.021,-0.445676 0.14592,-0.898329 0.37085,-1.343921 0.32293,-0.639712 1.05257,-1.555189 1.63207,-2.047751 0.16185,-0.137569 0.2947,-0.270111 0.29521,-0.294537 6.2e-4,-0.02443 -0.12072,-0.29283 -0.26941,-0.596452 -0.36157,-0.738307 -0.51836,-1.233342 -0.80252,-2.533797 l -0.0294,-0.134682 -0.18283,0.360832 c -0.51646,1.019289 -1.18989,2.179368 -1.8345,3.160155 l -0.4173,0.634932 0.13369,0.355702 c 0.24235,0.644797 0.3042,0.965626 0.30233,1.568335 -0.001,0.477932 -0.0132,0.573472 -0.10407,0.846576 -0.0563,0.169315 -0.16778,0.420103 -0.24769,0.557306 -0.17916,0.307623 -0.67658,0.816748 -1.01111,1.034903 -0.61376,0.400256 -1.48541,0.731917 -2.19315,0.834497 -0.78135,0.113246 -1.2638,0.02623 -1.47187,-0.265467 -0.11602,-0.162668 -0.11567,-0.480361 8.2e-4,-0.704433 0.10847,-0.208692 0.5335,-0.751102 1.27724,-1.629969 0.60492,-0.71484 1.0525,-1.275113 1.40037,-1.752976 l 0.18705,-0.256945 -0.30967,-0.640091 c -0.46159,-0.954125 -0.60261,-1.3558 -0.81506,-2.321632 -0.0605,-0.275171 -0.11945,-0.509717 -0.13095,-0.521215 -0.0115,-0.0115 -0.0329,0.01188 -0.0476,0.05195 -0.11179,0.304841 -0.88644,2.12032 -1.20509,2.824222 -0.58682,1.296327 -2.02904,4.07423 -2.45733,4.733131 -0.20511,0.315576 -0.79846,0.893018 -1.02483,0.997367 -0.26435,0.121863 -0.63576,0.103377 -0.85638,-0.04262 -0.46718,-0.309166 -0.68841,-1.191673 -0.59124,-2.358487 0.0239,-0.286543 0.0539,-0.577109 0.0667,-0.645702 0.0423,-0.226371 -0.0443,-0.06408 -0.33388,0.625658 -0.37933,0.903586 -0.99289,2.114861 -1.23172,2.431632 -0.37423,0.496368 -0.87211,0.711379 -1.42268,0.614398 -0.24325,-0.04285 -0.49577,-0.150858 -0.6301,-0.269512 -0.30821,-0.272248 -0.68304,-0.950166 -0.90711,-1.640567 -0.20227,-0.623237 -0.27431,-1.018131 -0.29852,-1.636201 -0.0328,-0.836937 0.14678,-2.113595 0.41066,-2.919859 0.0597,-0.18247 0.10282,-0.3379 0.0958,-0.345401 -0.007,-0.0075 -0.1481,0.06068 -0.31344,0.151524 -0.30216,0.166004 -1.94415,1.111395 -1.96814,1.133174 -0.007,0.0064 0.0484,0.164646 0.12319,0.351635 0.282,0.704822 0.39113,1.436441 0.3597,2.411428 -0.0284,0.881972 -0.15661,1.550323 -0.43621,2.274662 -0.7965405,2.063456 -2.6310105,3.622141 -4.7862105,4.066656 -0.35515,0.07325 -1.40479,0.127575 -1.67391,0.08663 z m 1.82784,-2.290685 c 0.15873,-0.03971 0.47998,-0.165786 0.71389,-0.280159 1.38644,-0.677939 2.44295,-2.052344 2.77694,-3.612493 0.1011,-0.472262 0.0898,-1.49384 -0.0221,-2.005731 -0.046,-0.210191 -0.0919,-0.390542 -0.10219,-0.400781 -0.0252,-0.02519 -0.9492,0.538174 -1.63492,0.996789 -1.00381,0.671359 -1.97789,1.456451 -2.37847,1.916998 -0.45684,0.525246 -0.82442,1.188989 -0.97231,1.755714 -0.10152,0.38902 -0.11033,0.92621 -0.0192,1.173117 0.19429,0.526699 0.74484,0.680109 1.6384,0.456546 z M 22.87818,23.95466 c 0.24933,-0.116541 0.76038,-0.503161 0.99102,-0.749739 0.25219,-0.269618 0.4718,-0.621902 0.56297,-0.903123 0.0953,-0.293999 0.1481,-0.696847 0.0886,-0.676009 -0.0228,0.008 -0.23859,0.261309 -0.47953,0.562955 -0.24094,0.301646 -0.6618,0.792863 -0.93523,1.091595 -0.57583,0.629086 -0.60873,0.670533 -0.57529,0.724634 0.0385,0.06224 0.13731,0.04793 0.34749,-0.05031 z m -8.44546,-0.05244 c 0.25163,-0.17497 0.54539,-0.700439 0.97408,-1.742437 0.97848,-2.378298 1.63842,-4.41565 1.64071,-5.065125 0.001,-0.286669 -0.0501,-0.342563 -0.30974,-0.338676 -0.26747,0.004 -0.62673,0.195648 -0.97306,0.519087 -0.35528,0.331791 -0.5907,0.6467 -0.93946,1.256665 -0.68082,1.19073 -0.99101,2.241872 -1.03659,3.512607 -0.0238,0.664134 0.0207,1.113143 0.1486,1.498452 0.1284,0.38685 0.28874,0.503165 0.49546,0.359427 z m 14.10686,-1.286459 c 0.91625,-0.404007 1.40899,-1.14124 1.39612,-2.088856 -0.004,-0.311007 -0.0721,-0.643738 -0.13567,-0.66479 -0.0666,-0.02206 -0.65047,0.623422 -0.89658,0.99116 -0.35555,0.531262 -0.72781,1.491869 -0.67406,1.739416 0.0277,0.127496 0.0668,0.130403 0.31019,0.02307 z"
     id="path3271" />
</svg>
