<?xml version="1.0" encoding="UTF-8" standalone="no"?>
<svg
   viewBox="0 0 38.571644 30"
   version="1.1"
   id="svg3349"
   sodipodi:docname="terminal-solid-30px.svg"
   inkscape:version="1.1.1 (3bf5ae0d25, 2021-09-20)"
   width="38.571644"
   height="30"
   xmlns:inkscape="http://www.inkscape.org/namespaces/inkscape"
   xmlns:sodipodi="http://sodipodi.sourceforge.net/DTD/sodipodi-0.dtd"
   xmlns="http://www.w3.org/2000/svg"
   xmlns:svg="http://www.w3.org/2000/svg">
  <defs
     id="defs3353" />
  <sodipodi:namedview
     id="namedview3351"
     pagecolor="#ffffff"
     bordercolor="#666666"
     borderopacity="1.0"
     inkscape:pageshadow="2"
     inkscape:pageopacity="0.0"
     inkscape:pagecheckerboard="0"
     showgrid="false"
     inkscape:zoom="0.81347656"
     inkscape:cx="607.88476"
     inkscape:cy="218.81393"
     inkscape:window-width="1920"
     inkscape:window-height="1011"
     inkscape:window-x="0"
     inkscape:window-y="32"
     inkscape:window-maximized="1"
     inkscape:current-layer="svg3349" />
  <!--! Font Awesome Pro 6.1.1 by @fontawesome - https://fontawesome.com License - https://fontawesome.com/license (Commercial License) Copyright 2022 Fonticons, Inc. -->
  <path
     d="m 0.62759279,3.658112 c -0.83679039,-0.837058 -0.83679039,-2.193762 0,-3.030821 0.83692431,-0.836388 2.19362831,-0.836388 3.03068651,0 L 16.513485,13.486515 c 0.837058,0.837058 0.837058,2.189744 0,3.026803 L 3.6582793,29.370532 c -0.8370582,0.837058 -2.1937622,0.837058 -3.03068651,0 -0.83679039,-0.837058 -0.83679039,-2.189744 0,-3.026802 L 11.966585,14.999916 Z M 36.428775,25.714262 c 1.185274,0 2.142869,0.957594 2.142869,2.142869 C 38.571644,29.042405 37.614049,30 36.428775,30 H 17.142953 c -1.185275,0 -2.142869,-0.957595 -2.142869,-2.142869 0,-1.185275 0.957594,-2.142869 2.142869,-2.142869 z"
     id="path3347"
     style="stroke-width:0.0669647" />
  <path
     style="fill:#076acd;stroke-width:0.082319"
     d="M 1.2586337,29.748564 C 0.8553704,29.548952 0.36314316,29.033585 0.19779881,28.63786 0.04504822,28.272277 0.05076332,27.439522 0.20864795,27.05702 0.29704139,26.842873 2.0952474,24.989777 6.1968607,20.886017 L 12.058745,15.021068 6.2389225,9.196705 C 1.7605586,4.714848 0.38070341,3.286958 0.25251766,3.001907 -0.24340829,1.899099 0.33547646,0.551181 1.4712179,0.164195 c 0.4737975,-0.161439 0.8677433,-0.159161 1.3747066,0.0079 0.3702758,0.122054 0.9889052,0.715953 7.088576,6.805202 4.5361475,4.528397 6.7480015,6.792627 6.8855695,7.048618 0.291547,0.542519 0.342172,0.978223 0.179765,1.547153 -0.135433,0.474439 -0.163388,0.503805 -6.900948,7.248994 -4.5498113,4.554964 -6.8745549,6.82592 -7.0996501,6.935384 -0.4634238,0.225364 -1.2756941,0.221198 -1.7406032,-0.0089 z"
     id="path3449" />
  <path
     style="fill:#076acd;stroke-width:0.082319"
     d="m 16.868867,29.92053 c -2.121282,-0.36538 -2.460154,-3.129114 -0.493353,-4.023631 0.266374,-0.121149 1.248759,-0.13376 10.419353,-0.13376 9.38858,0 10.146986,0.01026 10.424009,0.14101 1.31106,0.618807 1.702664,2.210501 0.810222,3.293188 -0.136395,0.165471 -0.460235,0.40508 -0.719646,0.532466 l -0.471654,0.23161 -9.795973,0.01203 c -5.387785,0.0066 -9.965617,-0.01719 -10.172958,-0.05291 z"
     id="path3488" />
</svg>
